PathFileType	4	(X/Y/Z)	C:\Users\°ÂÌØÂü\Desktop\20210112\bx_y_10_502-Unnamed.trc
DataRate	CameraRate	NumFrames	NumMarkers	Units	OrigDataRate	OrigDataStartFrame	OrigNumFrames
50.00	50.00	       8	0	mm	50.00	1	       499
Frame#	Time	
		

1	0.000	-602.69019	-1.03237	1051.49792	-591.54907	223.96042	1069.53601	-643.15930	282.72101	876.82349	-588.50641	-0.13596	805.99640	-587.14722	215.95464	817.19684	-721.38525	251.74225	645.03723	-691.56384	143.03929	575.10150	-728.28851	246.48915	577.40985	-664.00244	24.51284	519.74432	-770.52142	256.13953	503.76508	-675.85724	205.39233	532.71246	-716.49615	81.27943	215.08571	-711.72150	151.22188	216.39351	-771.34766	222.05289	205.37183	-882.42584	296.01208	144.62569	-674.41479	57.34739	155.33940	-602.51404	20.07578	165.61024	-675.35303	171.39482	157.12282	-594.51007	222.15355	173.51401	-666.43646	297.91510	160.67671	-628.70599	305.70395	161.79106	-560.63745	261.56604	165.51970	-528.00610	304.40421	146.80270	-691.42877	128.21056	1852.48657	-728.56500	299.74326	1526.83264	-692.23181	274.05963	748.13721	-517.83014	-72.53670	142.84929	-796.52301	171.81956	183.93509	-720.17969	-61.47940	1549.43713	-799.93103	100.99543	1055.88477	-766.20593	-2.79695	208.08505	-794.34766	57.33791	174.52750	-759.99841	-30.24549	489.12918	-663.78247	-64.62401	164.97772	-876.13934	-78.71100	141.67271	-696.71686	-44.84167	718.13513	-698.87061	-22.74341	616.91162	-560.72583	-41.83167	163.59349	-623.27289	-77.10069	160.00900				-630.73187	113.58921	1438.64551	-687.73993	86.19464	576.99384	-712.04645	-20.18560	567.88892	-654.28192	-64.30774	869.72217	
2	0.020	-602.58368	-0.96816	1051.57410	-591.48865	223.98128	1069.48499	-642.99323	282.70987	876.74927	-588.43469	-0.21056	805.98212	-587.03870	215.97475	817.06067	-721.52808	251.51155	645.07355	-691.11224	142.97165	575.27411	-728.06793	246.49142	577.52863	-664.00244	24.51284	519.74432	-770.64038	256.07813	503.60556	-675.92389	205.45119	532.77771	-716.49615	81.27943	215.08571	-711.72058	151.59767	216.09929	-771.32404	221.74101	205.38388	-882.45367	296.04120	144.62456	-674.49646	57.35090	155.35155	-602.66382	20.09557	165.73746	-675.35303	171.39482	157.12282	-594.51007	222.15355	173.51401	-666.36768	298.14755	160.89926	-628.78015	305.83575	161.77217	-560.74542	261.36255	165.11475	-528.08289	304.50589	146.80527	-691.14685	128.25447	1852.46790	-728.35626	299.52908	1526.75146	-691.99506	273.79221	748.08850	-517.95471	-72.26328	143.03210	-796.67621	171.69124	184.01559	-719.93896	-61.53652	1549.40698	-799.72510	100.95759	1055.81580	-766.32245	-2.79519	207.97061	-794.29993	57.25329	174.73491	-759.99042	-30.57245	489.20786	-663.86945	-64.82757	164.80592	-876.06970	-78.48415	141.55768	-696.71686	-44.84167	718.13513	-698.90802	-22.86800	616.73108	-560.78912	-41.76532	163.73788	-623.12268	-76.97661	160.27255				-630.08734	113.32745	1438.87378	-687.55115	86.02135	577.19037	-711.99371	-20.18587	567.74213	-654.14270	-64.06680	869.49762	
3	0.040	-602.58795	-1.08541	1051.32458	-591.46564	224.02213	1069.41931	-643.13177	282.55554	876.68860	-588.34015	-0.34211	805.79138	-586.94550	215.87445	817.04901	-721.46661	251.49261	645.06696	-691.28192	142.79018	575.19489	-728.06793	246.49142	577.52863	-664.08771	24.54133	519.80182	-770.43231	255.82268	503.31888	-675.92389	205.45119	532.77771	-716.39252	81.26210	215.23265	-711.61810	151.44426	216.27956	-771.32404	221.74101	205.38388	-882.43616	296.14734	144.72641	-674.25903	57.35648	155.67134	-602.56903	20.08693	165.71040	-675.49225	171.43427	156.95483	-594.51007	222.15355	173.51401	-666.26758	298.25961	160.49007	-628.69171	305.79666	161.66367	-560.69159	261.38101	165.20065	-528.18506	304.27109	146.68633	-690.73700	127.93964	1852.47803	-727.78601	299.43387	1526.83521	-692.08099	273.80594	748.26428	-517.85339	-72.53027	142.98650	-796.59991	171.77780	183.79227	-719.54907	-61.75387	1549.32178	-799.72510	100.95759	1055.81580	-766.32245	-2.79519	207.97061	-794.23444	57.40200	174.65901	-760.04468	-30.62066	489.08334	-663.90204	-64.78224	165.04266	-876.13934	-78.71100	141.67271	-696.74878	-44.98604	718.15527	-698.92224	-22.95404	616.66150	-560.75055	-41.75267	163.61743	-623.63086	-77.03781	160.22340				-629.94366	113.19785	1438.57910	-687.66711	85.91579	577.14923	-712.04645	-20.18560	567.88892	-654.14319	-64.32274	869.46106	
4	0.060	-602.18530	-1.00368	1051.56531	-591.23621	223.78648	1069.31372	-642.80182	282.36246	876.58710	-588.22327	-0.58562	805.92505	-586.95380	215.88371	817.03845	-721.19604	251.48334	645.04248	-691.08612	142.72934	575.32947	-727.96112	246.59912	577.57422	-663.86200	24.40191	519.89063	-770.44049	255.94168	503.58743	-675.80835	205.27318	532.91638	-716.42383	81.12596	215.17215	-711.68701	151.55267	216.25781	-771.28876	221.91624	205.49091	-882.42120	296.05798	144.68095	-674.62122	57.51574	155.36012	-602.47754	20.01968	165.58539	-675.57239	171.41725	156.83623	-594.61188	222.10960	173.45155	-666.16211	298.16376	160.31931	-628.74469	305.80783	161.83148	-560.93091	261.46561	165.19217	-528.12360	304.36343	146.55630	-690.32977	127.89777	1852.39807	-727.85504	298.99448	1526.70435	-691.99506	273.79221	748.08850	-517.69012	-72.57461	142.90031	-796.56970	171.82710	183.86479	-719.08307	-61.92889	1549.19971	-799.73938	100.80502	1055.89380	-766.27887	-2.81231	208.03523	-794.31934	57.26767	174.78752	-760.04468	-30.62066	489.08334	-663.97217	-64.69155	165.19748	-876.05139	-78.44123	141.62697	-696.73248	-45.13288	718.14288	-699.08417	-23.34457	616.89789	-560.75055	-41.75267	163.61743	-623.49884	-77.23124	160.34518				-629.44928	112.89083	1438.63428	-687.66711	85.91579	577.14923	-712.05951	-20.21872	567.83002	-654.21497	-64.33888	869.43823	
5	0.080	-602.37610	-1.23599	1051.22705	-591.17719	223.85184	1069.25476	-642.68695	282.35449	876.68121	-588.24835	-0.49044	805.81573	-586.83789	215.78316	817.05426	-721.37256	251.39774	645.05804	-691.03485	142.46550	575.61322	-727.89240	246.26210	577.59930	-664.16022	24.44112	519.67657	-770.46967	255.75406	503.61621	-675.86798	205.25356	532.54364	-716.28888	81.00382	215.07066	-711.71655	151.48244	216.18332	-771.37408	221.78476	205.37013	-882.57336	296.11020	144.60263	-674.32343	57.41811	155.55104	-602.60413	20.18975	165.64107	-675.39880	171.47935	156.81538	-594.56909	222.24207	173.44835	-666.30353	298.20142	160.81369	-628.64362	305.65964	161.89189	-560.69318	261.37814	165.49312	-528.01697	304.19867	146.71025	-689.98303	127.59889	1852.30981	-727.01764	300.11392	1527.29041	-691.75201	273.47653	747.91510	-517.69012	-72.57461	142.90031	-796.63940	171.74403	184.01389	-718.86938	-61.95285	1549.20483	-799.49957	100.72591	1055.75354	-766.32245	-2.79519	207.97061	-794.39948	57.38050	174.55060	-760.04468	-30.62066	489.08334	-663.83539	-64.70641	165.23660	-876.13446	-78.66106	141.72231	-696.57666	-45.40696	718.26324	-699.00476	-23.34979	616.79407	-560.78912	-41.76532	163.73788	-623.64545	-77.08807	160.21729				-629.37195	112.76491	1438.66650	-687.66711	85.91579	577.14923	-712.12659	-20.19825	567.74799	-654.33740	-64.66486	869.48907	
6	0.100	-602.08270	-1.48293	1051.11218	-591.03137	223.72543	1069.32581	-642.41144	282.56207	877.13580	-588.17627	-0.55055	805.78247	-586.72192	215.64793	816.98907	-721.20959	251.34665	645.05389	-691.03485	142.46550	575.61322	-727.94263	246.54990	577.65771	-663.86200	24.40191	519.89063	-770.38818	255.80334	503.62137	-675.77533	205.32202	532.77081	-716.08551	81.03151	215.11444	-711.71655	151.48244	216.18332	-771.31067	221.84019	205.31740	-882.42584	296.01208	144.62569	-674.30115	57.47747	155.57021	-602.64392	20.18724	165.56795	-675.49225	171.43427	156.95483	-594.58105	222.28549	173.52876	-666.45984	298.02054	160.73135	-628.79285	305.75757	161.78615	-560.74542	261.36255	165.11475	-528.11536	304.45233	146.53067	-689.92096	127.50479	1852.47546	-726.88892	300.34360	1527.49963	-691.81006	273.61746	747.87994	-517.93677	-72.26031	142.56815	-796.53693	171.85345	183.95416	-718.65985	-62.08174	1549.32288	-799.31287	100.52153	1055.69568	-766.37878	-2.81559	207.94164	-794.33130	57.18388	174.62270	-759.99762	-30.71315	489.09668	-663.81885	-64.89989	165.08237	-876.02838	-78.54763	141.55200	-696.71063	-45.34355	717.88495	-698.91156	-23.16494	616.61823	-560.75055	-41.75267	163.61743	-623.32458	-77.03070	159.81148				-629.09058	112.60518	1438.67603	-687.66711	85.91579	577.14923	-712.07361	-20.29365	567.71985	-654.23285	-64.56255	869.51117	
7	0.120	-601.80280	-1.58598	1051.22583	-590.82111	223.58057	1069.27112	-642.37518	282.45328	876.94031	-587.86157	-0.81068	805.82172	-586.68420	215.65181	816.90186	-721.20959	251.34665	645.05389	-691.08612	142.72934	575.32947	-727.89532	246.12343	577.44684	-663.71082	24.29538	520.02759	-770.31354	255.68202	503.55695	-675.69788	205.13060	532.61322	-716.39252	81.26210	215.23265	-711.82397	151.37527	216.21321	-771.26398	221.80415	205.31909	-882.55408	296.28027	144.78130	-674.49646	57.35090	155.35155	-602.63208	20.01883	165.73860	-675.35303	171.39482	157.12282	-594.51007	222.15355	173.51401	-666.43646	297.91510	160.67671	-628.73053	305.73596	161.77963	-560.86383	261.37177	165.09019	-528.09302	304.43427	146.68521	-689.50684	127.25819	1852.35425	-726.96655	300.28815	1527.41455	-691.63239	273.57544	747.99847	-517.83673	-72.36099	142.81609	-796.69202	171.81279	184.01433	-718.55292	-62.14655	1549.20300	-799.09509	100.45165	1055.98083	-766.36957	-2.80831	207.91072	-794.31152	57.20481	174.74141	-759.99762	-30.71315	489.09668	-663.98865	-64.77390	164.92216	-876.15277	-78.70397	141.65302	-696.71063	-45.34355	717.88495	-698.82391	-23.38345	616.85333	-560.75055	-41.75267	163.61743	-623.40588	-77.08340	160.03864				-628.75769	112.54220	1438.55347	-687.66711	85.91579	577.14923	-712.08557	-20.29504	567.75745	-654.02911	-64.80804	869.64502	
8	0.140	-601.34912	-1.70708	1051.36438	-590.71436	223.54185	1069.17737	-642.29449	282.28656	876.95398	-587.82141	-0.80130	805.73462	-586.51282	215.35135	816.84882	-721.14276	251.47371	645.13641	-691.08612	142.72934	575.32947	-727.78815	246.24043	577.48260	-663.86200	24.40191	519.89063	-769.89166	255.57570	503.59808	-675.65839	205.05774	532.69312	-716.32019	81.10863	215.31909	-711.62311	151.18372	216.48973	-771.32404	221.74101	205.38388	-882.54272	296.14630	144.66705	-674.32343	57.41811	155.55104	-602.47809	20.03937	165.73245	-675.39880	171.47935	156.81538	-594.61188	222.10960	173.45155	-666.48804	298.24170	160.82590	-628.62622	305.74799	161.83417	-560.73889	261.53958	165.05756	-528.09119	304.41696	146.83089	-689.32568	127.06598	1852.42346	-726.69073	300.06299	1527.29956	-691.29358	273.57968	748.03632	-517.74957	-72.21583	142.86684	-796.55542	171.66684	183.71170	-718.22992	-62.37722	1549.18701	-798.83246	100.27563	1055.95032	-766.28149	-2.81148	207.98080	-794.22668	57.33914	174.61290	-760.09637	-30.75012	489.00583	-663.76849	-64.84772	165.16367	-876.03320	-78.59757	141.50241	-696.41565	-45.60978	718.04993	-698.86328	-23.53711	616.62463	-560.75055	-41.75267	163.61743	-623.70111	-77.25225	160.19977				-628.60199	112.68389	1438.56323	-687.77698	85.74834	577.04517	-712.00677	-20.21898	567.68317	-653.93488	-64.78033	869.31262	
